 <svg  version="1.0" xmlns="http://www.w3.org/2000/svg"  width="300.000000pt" height="225.000000pt" viewBox="0 0 300.000000 225.000000"  preserveAspectRatio="xMidYMid meet">  <g transform="translate(0.000000,225.000000) scale(0.100000,-0.100000)" fill="#ffc107" stroke="none"> <path d="M1933 1633 c-17 -6 -17 -50 0 -56 27 -10 55 31 34 52 -12 12 -15 12 -34 4z"/> <path d="M1351 1605 c-55 -17 -142 -76 -174 -118 -60 -79 -72 -116 -72 -222 0 -93 2 -104 32 -160 38 -74 105 -138 181 -173 48 -22 71 -27 142 -26 113 0 188 32 264 115 181 195 108 494 -140 579 -67 23 -168 25 -233 5z m190 -25 c24 0 131 -74 171 -118 99 -110 88 -312 -23 -423 -68 -68 -110 -84 -224 -84 -113 0 -145 11 -219 76 -116 102 -138 291 -47 415 16 22 52 58 81 79 43 32 67 41 129 51 42 6 85 10 96 8 11 -2 27 -4 36 -4z"/> <path d="M1347 1543 c-16 -16 -4 -44 31 -73 l37 -32 -37 -39 c-59 -62 -61 -147 -6 -206 12 -13 28 -23 36 -23 8 0 0 -16 -22 -41 -38 -45 -61 -101 -52 -124 11 -28 32 -15 43 28 7 24 26 56 46 75 34 33 36 33 64 19 38 -20 52 -38 68 -84 16 -46 45 -57 45 -18 0 36 -23 77 -61 109 l-31 27 27 27 c43 43 58 80 52 131 -4 37 -13 52 -45 83 l-41 37 35 35 c33 33 46 77 22 75 -7 0 -27 -19 -43 -42 -47 -64 -93 -59 -131 15 -15 28 -25 34 -37 21z m148 -145 c47 -21 69 -96 44 -150 -10 -23 -66 -68 -85 -68 -5 0 -24 14 -41 30 -56 52 -56 103 -2 165 34 38 45 41 84 23z"/> <path d="M1462 1371 c-39 -7 -71 -25 -61 -35 2 -2 29 -1 59 2 41 5 56 11 58 25 2 9 0 16 -5 16 -4 -1 -27 -5 -51 -8z"/> <path d="M1455 1309 c-71 -13 -80 -18 -68 -30 16 -16 153 9 153 28 0 15 -13 15 -85 2z"/> <path d="M1480 1253 c-53 -8 -70 -14 -70 -23 0 -11 52 -12 88 -2 13 4 23 11 23 17 1 12 -8 13 -41 8z"/> <path d="M1418 1543 c-32 -8 -19 -23 20 -23 46 0 82 9 82 21 0 9 -71 10 -102 2z"/> <path d="M1440 1500 c-24 -8 -23 -8 8 -9 20 -1 31 3 27 9 -3 6 -7 10 -8 9 -1 -1 -13 -5 -27 -9z"/> <path d="M1428 1089 c-31 -18 -20 -30 20 -24 58 10 73 16 67 26 -8 12 -65 11 -87 -2z"/> <path d="M1440 1043 c-53 -6 -65 -12 -52 -25 8 -8 29 -8 82 1 116 21 95 38 -30 24z"/> <path d="M1983 1554 c-3 -8 1 -22 9 -30 13 -14 17 -14 31 1 9 8 14 22 11 30 -8 20 -43 19 -51 -1z"/> <path d="M1927 1543 c-4 -3 -7 -12 -7 -20 0 -15 26 -18 34 -4 7 11 -18 33 -27 24z"/> <path d="M1966 1476 c-68 -13 -89 -34 -64 -63 22 -26 24 -135 3 -153 -47 -39 -58 -116 -25 -180 27 -53 68 -73 136 -68 60 5 86 23 115 80 34 67 17 146 -39 188 -25 19 -31 31 -36 80 -5 41 -3 65 6 80 11 18 10 23 -6 36 -11 8 -22 14 -25 13 -3 -1 -33 -6 -65 -13z m53 -93 c2 -86 9 -108 42 -132 69 -51 69 -142 0 -188 -49 -33 -86 -30 -127 11 -28 28 -34 42 -34 76 0 46 14 78 43 99 17 12 19 21 13 85 -4 39 -9 79 -12 89 -4 14 1 17 34 17 l39 0 2 -57z"/> <path d="M1974 1235 c-7 -18 3 -35 21 -35 18 0 26 15 19 34 -8 20 -33 21 -40 1z"/> <path d="M1937 1178 c-42 -23 11 -118 66 -118 36 0 87 51 87 88 0 24 -5 31 -27 35 -15 3 -37 0 -51 -6 -17 -8 -28 -8 -41 0 -11 7 -23 8 -34 1z m108 -48 c0 -8 -12 -21 -27 -28 -24 -11 -30 -10 -53 10 -31 27 -18 39 40 36 28 -2 40 -8 40 -18z"/> <path d="M2219 900 c-11 -6 -15 -18 -11 -35 3 -20 0 -25 -17 -25 -21 0 -26 -15 -15 -44 3 -8 11 -13 19 -10 9 4 14 -11 17 -56 5 -77 32 -110 75 -94 20 7 28 16 28 34 0 20 -5 24 -21 22 -24 -3 -34 19 -34 74 0 26 5 33 26 38 19 5 25 12 22 29 -2 18 -9 21 -30 19 -25 -3 -28 0 -28 27 0 33 -5 36 -31 21z m31 -67 c-1 -18 -18 -35 -24 -24 -4 6 -4 16 -1 21 7 12 25 13 25 3z"/> <path d="M1665 816 c-78 -11 -80 -12 -83 -40 -4 -28 -3 -29 36 -23 l39 7 7 -107 c4 -63 12 -110 18 -114 21 -13 50 10 44 34 -2 12 -8 60 -12 107 l-6 86 38 9 c29 8 39 15 39 30 0 25 -16 26 -120 11z"/> <path d="M1513 813 c-8 -3 -13 -23 -13 -52 l0 -46 -41 0 c-90 0 -135 -120 -70 -186 34 -33 74 -38 110 -13 19 14 25 14 32 3 6 -11 13 -11 26 -3 10 6 18 15 18 20 -5 118 -20 262 -27 272 -11 13 -15 13 -35 5z m-5 -191 c4 -39 -12 -62 -42 -62 -29 0 -46 18 -46 50 0 35 19 52 55 48 26 -3 30 -7 33 -36z"/> <path d="M2053 810 c-12 -5 -29 -21 -39 -35 -31 -48 12 -95 87 -95 32 0 37 -11 13 -31 -12 -10 -22 -10 -47 -1 -26 10 -34 9 -50 -5 -17 -16 -17 -18 -1 -30 10 -7 38 -13 62 -13 35 0 49 6 73 29 50 51 33 90 -44 100 -30 4 -43 11 -45 24 -3 16 2 18 38 16 28 -2 44 1 50 11 20 33 -42 52 -97 30z"/> <path d="M1860 783 c-30 -11 -60 -48 -70 -84 -15 -54 8 -105 55 -125 41 -17 70 -12 110 20 28 23 29 23 8 34 -16 9 -24 8 -33 -3 -15 -17 -43 -19 -71 -5 -34 19 -21 28 52 35 78 8 89 18 69 66 -23 54 -72 79 -120 62z m66 -60 c16 -17 15 -18 -22 -26 -21 -4 -47 -6 -57 -5 -16 3 -16 5 -2 26 19 26 57 29 81 5z"/> <path d="M995 644 c-19 -42 -35 -80 -35 -85 0 -21 -18 -4 -64 61 -36 52 -55 70 -72 70 -13 0 -26 -5 -29 -10 -11 -18 15 -264 29 -278 7 -7 20 -10 31 -6 16 6 17 16 12 91 -3 45 -5 83 -3 83 1 0 17 -21 35 -46 44 -60 67 -57 101 13 14 29 28 52 33 53 4 0 7 -31 7 -70 0 -57 3 -71 18 -79 39 -21 45 0 38 120 -10 148 -12 159 -42 159 -21 0 -30 -12 -59 -76z m55 -21 c0 -20 -3 -24 -11 -16 -7 7 -9 19 -6 27 10 24 17 19 17 -11z m-194 -10 c9 -13 9 -22 2 -30 -17 -21 -28 -15 -28 17 0 34 7 38 26 13z"/> <path d="M1174 662 c-29 -23 -44 -54 -44 -92 0 -104 109 -145 193 -72 16 14 16 16 -2 29 -17 11 -24 10 -49 -4 -25 -14 -35 -15 -56 -5 -42 19 -31 28 47 38 l72 9 -2 33 c-2 52 -37 82 -92 82 -28 0 -54 -7 -67 -18z m101 -43 c9 -14 7 -15 -50 -24 l-50 -7 19 21 c20 22 70 29 81 10z"/> </g> </svg> 